PathFileType	4	(X/Y/Z)	C:/Users/beibeiliu/ov580/test_trc/capture2\sequence.4_training_dense_left.trc
DataRate	CameraRate	NumFrames	NumMarkers	Units	OrigDataRate	OrigDataStartFrame	OrigNumFrames
120	120	18	19	mm	120	134	355
Frame#	Time	ThumbCMC			ThumbMCP			ThumbIP			ThumbTip			IndexMCP			IndexPIP			IndexTip			MiddleMCP			MiddlePIP			MiddleTip			RingMCP			RingPIP			RingTip			PinkyMCP			PinkyPIP			PinkyTip			BackHand1			BackHand2			BackHand3	
		X0	Y0	Z0	X1	Y1	Z1	X2	Y2	Z2	X3	Y3	Z3	X4	Y4	Z4	X5	Y5	Z5	X6	Y6	Z6	X7	Y7	Z7	X8	Y8	Z8	X9	Y9	Z9	X10	Y10	Z10	X11	Y11	Z11	X12	Y12	Z12	X13	Y13	Z13	X14	Y14	Z14	X15	Y15	Z15	X16	Y16	Z16	X17	Y17	Z17	X18	Y18	Z18	
133	1.10833	-103.006	98.532	-12.3941	-76.3805	93.2465	-31.4844	-67.402	88.6726	-58.7193	-74.0004	73.3148	-84.4796	-121.835	114.499	-78.0876	-116.657	116.393	-103.811	-114.175	120.112	-129.663	-105.86	86.5894	-87.0702	-77.5631	78.7487	-77.3148	-92.42	73.5922	-43.8758	-107.748	63.4795	-82.05	-81.8608	61.0887	-63.6313	-99.4314	67.8406	-33.5111	-111.289	47.9908	-75.4365	-89.8123	46.3291	-54.365	-106.117	58.6664	-30.7642	-151.867	67.638	-44.3013	-156.11	61.7783	-13.4636	-144.352	92.5586	-22.4155	
134	1.11667	-102.366	95.8552	-8.948	-77.6237	91.3112	-34.9393	-67.2581	89.0086	-59.6535	-73.4125	75.0229	-81.006	-120.583	116.699	-76.7958	-112.796	125.818	-103.843	-112.368	122.556	-126.404	-104.208	91.8931	-85.9855	-77.5259	78.3322	-79.8204	-91.0555	80.1249	-42.7818	-106.409	66.9678	-82.3132	-81.1037	62.5898	-62.901	-100.621	66.7473	-33.044	-108.352	50.9837	-77.2569	-89.3978	52.7195	-53.9801	-106.363	62.9767	-30.0801	-148.401	70.2392	-48.3837	-155.342	67.2169	-17.2242	-142.237	97.4902	-23.0417	
135	1.125	-101.092	95.7015	-5.64003	-74.247	91.3293	-29.8538	-64.6626	88.9487	-59.2106	-70.0403	77.3994	-83.118	-116.668	120.956	-78.7193	-111.408	125.221	-103.086	-109.78	127.282	-126.901	-103.328	94.2368	-84.8579	-76.5017	82.404	-79.1093	-93.7836	77.417	-42.2808	-102.214	74.0184	-81.1057	-81.0652	61.2543	-61.0433	-98.5023	69.7852	-33.7382	-113.455	56.1394	-75.3999	-89.8243	51.7884	-53.9284	-105.965	60.9994	-28.3039	-148.481	75.2309	-45.7232	-154.923	64.3518	-19.0489	-139.592	98.2861	-20.854	
136	1.13333	-100.869	93.1795	-10.3922	-73.7479	89.5072	-32.8263	-62.1216	88.3267	-55.2208	-70.2682	77.898	-83.4592	-113.27	123.35	-76.5185	-108.928	127.321	-99.225	-107.352	130.319	-121.914	-101.718	96.1248	-84.5286	-75.1195	81.7537	-76.6171	-89.8583	81.0419	-41.8325	-105.2	72.9523	-80.8682	-82.017	62.5339	-66.1066	-99.7653	67.2347	-33.493	-108.85	56.821	-77.0673	-91.3824	48.7928	-55.4901	-109.102	62.7215	-27.7858	-147.463	77.1671	-42.7919	-155.539	66.2755	-17.1784	-138.934	97.4009	-20.7249	
137	1.14167	-100.591	91.6001	-8.8303	-73.0285	85.8877	-29.0667	-64.9212	84.206	-57.8834	-72.4066	75.1465	-81.9356	-111.796	123.28	-70.0485	-102.781	132.758	-95.3792	-100.366	137.141	-118.913	-103.258	96.9031	-80.3627	-74.4123	80.3524	-75.62	-90.5488	75.1504	-42.2142	-107.324	72.3608	-81.1028	-83.5886	58.4656	-65.481	-98.9981	67.7074	-33.2856	-111.4	58.3899	-76.4916	-92.9215	49.7996	-55.0564	-106.205	59.5928	-30.0472	-148.617	78.7617	-43.1039	-154.233	66.9746	-14.8245	-136.95	100.616	-18.1845	
138	1.15	-98.633	87.7141	-4.52587	-73.5112	80.9621	-28.1908	-60.8899	81.6348	-59.0041	-69.116	73.2633	-81.7376	-107.289	124.672	-70.0108	-99.913	131.147	-94.9432	-94.659	138.823	-118.119	-99.4554	94.7461	-82.9968	-74.4381	77.41	-74.0975	-88.6249	73.4904	-41.3655	-106.298	74.8818	-79.8161	-82.3763	60.0356	-64.2134	-98.4892	60.8532	-34.4249	-110.097	61.0217	-75.6578	-93.3638	48.7741	-54.812	-107.011	59.0676	-30.8068	-148.835	80.4846	-46.838	-154.266	68.8845	-12.0583	-133.755	101.442	-17.894	
139	1.15833	-93.5503	87.3291	-4.33166	-69.7737	78.9478	-28.8068	-61.1067	77.818	-55.8029	-68.5823	71.8355	-76.3855	-99.2331	125.801	-66.9623	-90.1503	133.353	-90.8213	-88.569	136.736	-111.71	-95.3203	92.4295	-83.2949	-72.6326	75.2603	-77.3486	-84.058	70.1076	-41.7666	-101.179	72.238	-78.9874	-81.9697	54.8846	-60.5247	-97.3941	63.0136	-32.1775	-114.244	59.4163	-75.8351	-93.9694	46.1021	-57.0834	-111.959	58.4697	-31.1433	-145.291	80.966	-41.2992	-153.806	72.0326	-17.3884	-132.553	97.4726	-15.2211	
140	1.16667	-93.4691	83.5589	-3.47904	-68.0068	75.5358	-24.2777	-57.2811	76.2729	-52.0027	-67.3419	70.4496	-78.7387	-94.1421	120.585	-66.9357	-84.3171	129.673	-90.0914	-81.1133	135.47	-110.633	-91.851	92.9996	-77.9785	-70.3224	69.4234	-77.4947	-82.3291	63.865	-41.0471	-98.2421	72.0784	-78.4061	-79.5802	52.6957	-58.92	-95.615	60.7682	-32.0527	-110.407	57.2511	-76.1429	-93.8048	44.1233	-56.242	-106.741	58.2863	-33.2924	-141.656	82.12	-42.7296	-151.807	71.5479	-12.5571	-126.699	101.438	-15.4007	
141	1.175	-90.8371	80.1528	0.775562	-69.3983	75.6593	-22.7095	-54.9697	80.194	-47.5957	-70.0013	73.2412	-70.3059	-85.2056	117.422	-61.1493	-75.9306	124.685	-82.4186	-67.8555	135.482	-107.762	-88.697	89.2899	-78.5121	-63.0445	64.4407	-75.5282	-72.8037	53.2534	-44.0018	-95.0718	64.8809	-79.5455	-81.2366	45.5685	-61.3804	-95.9793	52.1533	-33.4884	-106.619	53.1425	-78.1302	-93.2763	39.7104	-57.343	-108.737	58.8156	-30.2079	-136.692	83.5818	-46.388	-150.297	74.5223	-18.0678	-123.331	95.467	-15.2833	
142	1.18333	-88.713	75.5632	4.6772	-66.8682	71.0465	-20.4362	-53.8993	73.9226	-46.4356	-68.7103	68.064	-69.8318	-81.7178	113.891	-59.8106	-71.6215	119.66	-83.3502	-64.105	126.743	-104.658	-81.1859	85.81	-76.4778	-64.1201	59.2824	-77.0801	-77.2944	48.7913	-41.997	-93.2453	65.9248	-76.3491	-80.3671	41.7108	-60.7062	-93.8655	55.5817	-30.2926	-105.751	50.0504	-77.2614	-91.5131	39.0033	-55.2268	-109.169	52.782	-29.465	-134.524	83.0334	-43.4347	-149.983	73.6716	-18.6366	-122.306	93.67	-13.787	
143	1.19167	-87.4328	73.0718	2.59795	-66.7512	61.5888	-21.613	-51.2341	61.121	-44.8632	-60.1192	58.0965	-70.9431	-78.5492	110.707	-59.3618	-68.1721	116.807	-80.7513	-58.8029	123.092	-103.274	-80.8985	80.9512	-77.7263	-65.0642	54.5675	-71.2935	-78.6583	53.2054	-36.8569	-93.476	63.7354	-76.0858	-79.9884	39.0129	-57.27	-93.1502	47.9747	-31.2708	-108.845	50.7175	-75.1423	-91.8715	36.6349	-53.5436	-111.14	53.7573	-28.9894	-132.355	84.4563	-43.105	-149.029	71.6994	-16.8125	-120.153	90.9394	-13.3628	
144	1.2	-87.8471	69.7932	2.73512	-63.2013	59.0747	-21.7236	-50.4407	56.6963	-46.2043	-55.4184	54.2377	-74.5602	-78.8866	109.537	-58.5879	-64.0326	115.846	-80.2163	-54.7482	122.344	-104.563	-81.9244	80.9956	-75.2942	-64.4751	55.3302	-71.9141	-78.5935	55.121	-35.3754	-88.8046	60.858	-75.6274	-78.7806	40.0373	-60.8623	-97.0527	49.2834	-29.2702	-106.555	52.3112	-72.0744	-94.1128	35.215	-50.7831	-109.399	49.2777	-29.3865	-132.158	82.6804	-41.5831	-148.555	72.1858	-14.9601	-116.969	92.3955	-13.6905	
145	1.20833	-86.1105	72.1873	0.872585	-64.8601	60.273	-21.0036	-51.3672	58.9807	-47.4643	-60.0943	55.3424	-72.6193	-77.5803	109.207	-62.414	-66.8192	114.128	-80.7029	-57.6262	119.349	-102.08	-82.8624	79.8925	-75.0962	-65.2877	54.4173	-73.3588	-78.0511	51.1941	-35.2553	-92.2356	63.1738	-74.0654	-80.1807	38.283	-58.448	-96.6972	50.7451	-30.3283	-104.035	46.2566	-75.5512	-95.417	32.9148	-51.4862	-112.488	50.8778	-30.045	-134.492	78.774	-43.099	-150.546	71.3288	-16.5999	-118.54	91.0763	-11.7107	
146	1.21667	-93.8166	72.7599	0.344294	-70.3043	67.9636	-21.214	-53.6587	70.1541	-44.2378	-73.3184	62.5877	-67.6181	-81.3447	107.997	-63.7764	-67.5358	114.522	-79.6844	-57.8849	121.496	-108.544	-81.672	82.8802	-75.5162	-63.0127	55.7378	-76.514	-70.3656	43.6708	-42.6274	-89.702	59.5678	-76.06	-78.9523	37.8733	-54.2316	-95.9017	47.8214	-31.0852	-105.302	45.9064	-73.9832	-92.6038	35.1635	-51.1454	-110.335	55.2269	-29.85	-134.974	78.0051	-44.0022	-150.54	71.3673	-19.2384	-123.911	92.0732	-15.057	
147	1.225	-94.058	76.8335	-0.870951	-69.0598	73.9982	-20.7213	-63.5057	75.5575	-48.1533	-78.3115	66.8497	-71.7566	-82.8449	111.492	-62.3103	-71.2932	116.464	-83.0567	-63.2961	122.4	-106.42	-84.5993	81.1089	-78.8246	-62.8914	59.7368	-78.9855	-66.7316	43.5555	-46.4297	-94.2156	59.6992	-76.5864	-78.342	41.8342	-55.7349	-99.4811	52.1704	-30.0722	-105.822	45.4447	-75.8334	-93.2165	38.0021	-48.316	-113.409	56.9087	-30.4962	-137.121	77.6797	-48.7632	-151.425	70.4947	-15.5485	-122.109	93.1132	-13.6236	
148	1.23333	-94.43	79.7505	1.3236	-70.7774	76.1746	-23.6766	-61.543	77.098	-48.3424	-73.6364	68.4044	-74.4475	-88.4732	112.251	-63.9292	-77.6792	118.01	-85.9516	-69.706	124.653	-111.8	-86.4796	86.6316	-77.8224	-64.7047	62.0153	-78.1507	-73.8163	46.6162	-45.0819	-96.1452	60.4991	-77.8191	-80.5108	43.9861	-57.7826	-97.544	57.6158	-30.5495	-108.042	49.7175	-74.9393	-93.9782	40.5682	-49.5432	-115.059	58.4396	-30.364	-138.776	79.7499	-48.3554	-152.497	73.576	-13.7731	-125.339	95.3673	-16.2735	
149	1.24167	-96.3554	81.0406	-1.70104	-68.4034	73.1309	-21.0537	-55.6112	74.3324	-50.2947	-65.3452	68.8134	-77.5407	-90.4586	117.363	-68.3026	-82.8172	121.142	-86.7407	-70.8673	129.828	-112.404	-91.0064	90.1416	-76.663	-70.299	64.4369	-78.3242	-81.9932	58.9519	-38.8713	-97.5426	68.2335	-77.1358	-83.5394	47.2228	-58.4345	-100.059	54.5249	-32.0103	-112.923	54.64	-74.5627	-97.9978	40.1381	-53.7916	-116.498	57.9119	-30.8803	-143.409	82.1671	-47.2108	-155.578	72.4582	-16.2797	-126.564	99.4766	-14.0052	
150	1.25	-97.4096	84.5592	-4.94673	-71.2409	74.8598	-26.7154	-57.2909	74.433	-47.0624	-59.3547	71.0943	-75.7759	-94.9632	119.194	-65.5598	-81.6928	128.695	-87.3465	-77.8746	131.585	-111.803	-93.368	89.8226	-79.9678	-74.6071	65.413	-73.1087	-85.6976	64.2534	-41.4671	-97.012	72.5437	-77.8957	-84.8146	51.589	-59.3598	-100.972	59.8421	-32.4074	-113.435	55.8135	-77.2989	-98.9163	45.1671	-52.6945	-117.131	59.9666	-27.9176	-144.89	85.0553	-42.5724	-155.023	75.5701	-15.7137	-129.736	102.17	-14.0196	
